<?xml version="1.0" encoding="utf-8"?>

<!-- The icon can be used freely in both personal and commercial projects with no attribution required, but always appreciated. 
You may NOT sub-license, resell, rent, redistribute or otherwise transfer the icon without express written permission from iconmonstr.com -->

<!DOCTYPE svg PUBLIC "-//W3C//DTD SVG 1.1//EN" "http://www.w3.org/Graphics/SVG/1.1/DTD/svg11.dtd">
<svg version="1.1" xmlns="http://www.w3.org/2000/svg" xmlns:xlink="http://www.w3.org/1999/xlink" x="0px" y="0px"
	 width="512px" height="512px" viewBox="0 0 512 512" enable-background="new 0 0 512 512" xml:space="preserve">
<path id="location-2-icon" d="M256,90c49.902,0,90.5,40.598,90.5,90.5c0,57.579-60.042,151.583-90.5,202.867
	c-51.55-86.8-90.5-153.13-90.5-202.867C165.5,130.598,206.098,90,256,90 M256,50c-72.072,0-130.5,58.427-130.5,130.5
	c0,72.073,57.113,155.833,130.5,281.5c73.387-125.666,130.5-209.427,130.5-281.5C386.5,108.427,328.074,50,256,50L256,50z
	 M256,133.938c-25.072,0-45.397,20.325-45.397,45.396s20.325,45.396,45.397,45.396s45.396-20.324,45.396-45.396
	S281.072,133.938,256,133.938L256,133.938z"/>
</svg>
